<svg id="Capa_1" enable-background="new 0 0 512 512" height="512" viewBox="0 0 512 512" width="512" xmlns="http://www.w3.org/2000/svg"><g><path d="m121 0h330v452h-330z" fill="#00BFA6"/><path d="m226 0h225v452h-225z" fill="#00BFA6"/><path d="m391 61v451h-210l-120-120v-331z" fill="#f0f7ff"/><path d="m226 61h165v451h-165z" fill="#dfe7f4"/><path d="m61 392v21.211l98.789 98.789h21.211v-120z" fill="#dfe7f4"/><g><path d="m151 218.211-40.605-40.606 21.21-21.21 19.395 19.394 34.395-34.394 21.21 21.21z" fill="#7fe881"/></g><g><path d="m226 182h105v30h-105z" fill="#c7cfe1"/></g><g><path d="m151 293.211-40.605-40.606 21.21-21.21 19.395 19.394 34.395-34.394 21.21 21.21z" fill="#7fe881"/></g><g><path d="m226 257h105v30h-105z" fill="#c7cfe1"/></g><g><path d="m151 368.211-40.605-40.606 21.21-21.21 19.395 19.394 34.395-34.394 21.21 21.21z" fill="#7fe881"/></g><g><path d="m226 332h105v30h-105z" fill="#c7cfe1"/></g></g></svg>